<svg id="Layer_1" data-name="Layer 1" xmlns="http://www.w3.org/2000/svg" viewBox="0 0 342 126"><defs><style>.cls-1{fill:#231f20;}.cls-2{fill:#fff;}</style></defs><path class="cls-1" d="M12.94,2.15H327.15c7.67,0,13.9,6.78,13.9,15.12V113c0,8.34-6.23,15.12-13.9,15.12H12.94C5.28,128.15-.95,121.37-.95,113V17.27C-.95,8.93,5.28,2.15,12.94,2.15Z" transform="translate(0.95 -2.15)"/><path class="cls-2" d="M69.42,44.28C68.89,40,71,35.54,73.34,32.78a16.91,16.91,0,0,1,11-5.69A16.74,16.74,0,0,1,80.5,39c-2.66,3.13-6.92,5.56-11.08,5.24Z" transform="translate(0.95 -2.15)"/><path class="cls-2" d="M99.85,81.79a37.38,37.38,0,0,1-5.19,10.58c-3.08,4.58-6.26,9.06-11.37,9.14-5,.1-6.61-2.93-12.29-2.93s-7.51,2.85-12.25,3S50.2,96.72,47,92.19c-6.35-9.27-11.27-26.12-4.66-37.57a18.13,18.13,0,0,1,15.29-9.34C62.49,45.2,67,48.57,70,48.57s8.5-4.06,14.24-3.45a17.45,17.45,0,0,1,13.66,7.4c-.34.21-8.13,4.79-8.05,14.21a16.41,16.41,0,0,0,10,15.06Z" transform="translate(0.95 -2.15)"/><path class="cls-2" d="M128.64,62.51h-6.27L112.25,94h5.22l2.79-9.26H130.5L133.44,94h5.37L128.64,62.51Zm-7.48,18.35,2.62-8.2c.68-2.61,1.17-4.59,1.5-5.93h.1c.77,3.11,1.3,5.07,1.58,5.93l2.67,8.2Z" transform="translate(0.95 -2.15)"/><path class="cls-2" d="M162.12,74a8.95,8.95,0,0,0-14.35.9h-.09l-.27-3.61H143c.13,2.56.19,5,.19,7.46v24.46h5.06V91.29c1.32,2.15,3.47,3.22,6.48,3.22a9.18,9.18,0,0,0,7-3q3.17-3.36,3.16-9.14A12.36,12.36,0,0,0,162.12,74Zm-4,14.35a5.21,5.21,0,0,1-4.44,2.19,5,5,0,0,1-3.94-1.7,6.12,6.12,0,0,1-1.51-4.18v-3.8a6.83,6.83,0,0,1,.23-1.53,5.7,5.7,0,0,1,2-3.24,5.39,5.39,0,0,1,3.39-1.24,5.18,5.18,0,0,1,4.4,2.24,9.29,9.29,0,0,1,1.49,5.46,9.6,9.6,0,0,1-1.6,5.8Z" transform="translate(0.95 -2.15)"/><path class="cls-2" d="M188.21,74a8.94,8.94,0,0,0-14.34.9h-.09l-.28-3.61h-4.43c.13,2.56.19,5,.19,7.46v24.46h5.05V91.29c1.33,2.15,3.48,3.22,6.49,3.22a9.18,9.18,0,0,0,7-3Q191,88.16,191,82.38A12.31,12.31,0,0,0,188.21,74Zm-4,14.35a5.19,5.19,0,0,1-4.44,2.19,5,5,0,0,1-3.94-1.7,6.08,6.08,0,0,1-1.52-4.18v-3.8a6.93,6.93,0,0,1,.24-1.53,5.8,5.8,0,0,1,2-3.24,5.39,5.39,0,0,1,3.39-1.24,5.15,5.15,0,0,1,4.39,2.24,9.22,9.22,0,0,1,1.5,5.46,9.47,9.47,0,0,1-1.6,5.8Z" transform="translate(0.95 -2.15)"/><path class="cls-2" d="M218.22,79.69a8,8,0,0,1,1.94,5.48,8.43,8.43,0,0,1-2.8,6.55q-3.06,2.75-8.57,2.75a15,15,0,0,1-8.14-2l1.17-4.21a14.09,14.09,0,0,0,7.29,2A6.86,6.86,0,0,0,213.54,89a4.18,4.18,0,0,0,1.6-3.43,4.4,4.4,0,0,0-1.3-3.22,11.92,11.92,0,0,0-4.35-2.43c-5.56-2.07-8.31-5.08-8.31-9a8,8,0,0,1,2.92-6.36,11.59,11.59,0,0,1,7.74-2.47A15.23,15.23,0,0,1,219,63.55l-1.28,4.1a12.55,12.55,0,0,0-6-1.45,6.24,6.24,0,0,0-4.18,1.3,3.93,3.93,0,0,0,.19,5.93,16.64,16.64,0,0,0,4.58,2.43,15.28,15.28,0,0,1,6,3.83Z" transform="translate(0.95 -2.15)"/><path class="cls-2" d="M231.31,71.29h5.56v3.8h-5.56v11c0,2.79,1,4.2,2.94,4.2a9.41,9.41,0,0,0,2.24-.23l.15,3.83a11.57,11.57,0,0,1-3.93.56A6,6,0,0,1,228,92.63c-1.13-1.21-1.68-3.26-1.68-6.11V75.06h-3.31V71.29h3.31V67.13l4.95-1.49v5.65Z" transform="translate(0.95 -2.15)"/><path class="cls-2" d="M259,74.17a10.36,10.36,0,0,0-8-3.33,10.64,10.64,0,0,0-8.25,3.37,12.42,12.42,0,0,0-3.05,8.64,12,12,0,0,0,3,8.36,10.25,10.25,0,0,0,8,3.3,10.69,10.69,0,0,0,8.32-3.45,12.5,12.5,0,0,0,3-8.6,11.84,11.84,0,0,0-2.9-8.29ZM255.29,88a5.17,5.17,0,0,1-9.12,0,11.49,11.49,0,0,1,0-10.81,5.23,5.23,0,0,1,9.17,0,10.21,10.21,0,0,1,1.34,5.35A10.33,10.33,0,0,1,255.29,88Z" transform="translate(0.95 -2.15)"/><path class="cls-2" d="M278.3,70.91l0,4.82a8.86,8.86,0,0,0-1.6-.13,4.79,4.79,0,0,0-4.12,2,7.62,7.62,0,0,0-1.25,4.48V94h-5.06V78.44c0-2.63,0-5-.15-7.15h4.4l.19,4.35h.15a7.69,7.69,0,0,1,2.51-3.6A6.16,6.16,0,0,1,277,70.82a11.11,11.11,0,0,1,1.26.09Z" transform="translate(0.95 -2.15)"/><path class="cls-2" d="M300.88,81.57a12.31,12.31,0,0,0-2-7.17,8.41,8.41,0,0,0-7.42-3.64,9.66,9.66,0,0,0-7.93,3.64A13,13,0,0,0,280.69,83a11.5,11.5,0,0,0,3,8.33A11,11,0,0,0,292,94.4,19.07,19.07,0,0,0,299.6,93l-.79-3.5a17,17,0,0,1-6.12,1.07A7.56,7.56,0,0,1,287.75,89a6.56,6.56,0,0,1-2.2-5.14h15.14a12.23,12.23,0,0,0,.19-2.28Zm-15.31-1.32a7.61,7.61,0,0,1,1.49-3.93,4.8,4.8,0,0,1,4-2,4.39,4.39,0,0,1,4,2.11,6.8,6.8,0,0,1,1,3.88Z" transform="translate(0.95 -2.15)"/><path class="cls-2" d="M123.24,35.92c5.23,0,8.33,3.22,8.33,8.76s-3.08,8.83-8.33,8.83H117V35.92Zm-3.47,15.22H123c3.73,0,5.79-2.28,5.79-6.43s-2.07-6.44-5.79-6.44h-3.22Z" transform="translate(0.95 -2.15)"/><path class="cls-2" d="M133.28,47.1c0-4.12,2.42-6.65,6.08-6.65s6.08,2.53,6.08,6.65-2.41,6.65-6.08,6.65S133.28,51.23,133.28,47.1Zm9.48,0c0-2.84-1.34-4.48-3.4-4.48S136,44.26,136,47.1s1.34,4.48,3.4,4.48S142.76,50,142.76,47.1Z" transform="translate(0.95 -2.15)"/><path class="cls-2" d="M160.84,53.51h-2.75L155.4,43.9h-.06l-2.67,9.61H150l-3.52-12.83h2.63l2.34,10.1h0l2.67-10.1h2.53l2.69,10.1h.06l2.34-10.1h2.6l-3.51,12.83Z" transform="translate(0.95 -2.15)"/><path class="cls-2" d="M166,40.68h2.51v2.15h.06a4.17,4.17,0,0,1,4-2.37c2.83,0,4.45,1.81,4.45,4.75v8.3h-2.64V45.72c0-1.93-.91-3-2.73-3a3,3,0,0,0-3,3.3v7.48H166V40.68Z" transform="translate(0.95 -2.15)"/><path class="cls-2" d="M179.64,35.92h2.64V53.51h-2.64Z" transform="translate(0.95 -2.15)"/><path class="cls-2" d="M184.41,47.1c0-4.12,2.43-6.65,6.08-6.65s6.08,2.53,6.08,6.65-2.41,6.65-6.08,6.65S184.41,51.23,184.41,47.1Zm9.48,0c0-2.84-1.34-4.48-3.4-4.48s-3.4,1.64-3.4,4.48,1.34,4.48,3.4,4.48S193.89,50,193.89,47.1Z" transform="translate(0.95 -2.15)"/><path class="cls-2" d="M198.1,49.86c0-2.24,1.72-3.62,4.76-3.79l3.51-.2v-1c0-1.43-1-2.28-2.57-2.28a2.45,2.45,0,0,0-2.7,1.88h-2.49c.14-2.32,2.12-4,5.29-4S209,42.1,209,44.67v8.84h-2.52V51.4h-.06a4.6,4.6,0,0,1-4,2.33c-2.51,0-4.26-1.56-4.26-3.87Zm8.27-1.15v-1l-3.15.2c-1.58.11-2.47.8-2.47,1.9s.93,1.85,2.34,1.85A3.06,3.06,0,0,0,206.37,48.71Z" transform="translate(0.95 -2.15)"/><path class="cls-2" d="M211,47.1c0-4.05,2.14-6.62,5.36-6.62a4.36,4.36,0,0,1,4,2.34h.05v-6.9h2.65V53.51h-2.56V51.33h-.05a4.45,4.45,0,0,1-4.08,2.4c-3.25,0-5.39-2.59-5.39-6.63Zm2.69,0c0,2.7,1.31,4.4,3.39,4.4s3.38-1.72,3.38-4.4-1.36-4.4-3.38-4.4S213.66,44.4,213.66,47.1Z" transform="translate(0.95 -2.15)"/><path class="cls-2" d="M230.23,47.1c0-4.12,2.42-6.65,6.08-6.65s6.08,2.53,6.08,6.65-2.41,6.65-6.08,6.65S230.23,51.23,230.23,47.1Zm9.48,0c0-2.84-1.34-4.48-3.4-4.48s-3.4,1.64-3.4,4.48,1.34,4.48,3.4,4.48S239.71,50,239.71,47.1Z" transform="translate(0.95 -2.15)"/><path class="cls-2" d="M244.43,40.68h2.51v2.15H247a4.17,4.17,0,0,1,4-2.37c2.83,0,4.45,1.81,4.45,4.75v8.3h-2.64V45.72c0-1.93-.9-3-2.73-3a3,3,0,0,0-3.05,3.3v7.48h-2.63V40.68Z" transform="translate(0.95 -2.15)"/><path class="cls-2" d="M266.49,37.65v3h2.44v2.09h-2.44v7.07c0,1.11.49,1.61,1.56,1.61a6.67,6.67,0,0,0,.86-.06v2.08a7.43,7.43,0,0,1-1.46.12c-2.59,0-3.61-1-3.61-3.46V42.77H262V40.68h1.86v-3Z" transform="translate(0.95 -2.15)"/><path class="cls-2" d="M271.18,35.92h2.61v6.91h.06a4.19,4.19,0,0,1,4.06-2.37c2.82,0,4.5,1.88,4.5,4.78v8.27h-2.65V45.75c0-1.88-.95-3-2.8-3a3,3,0,0,0-3.14,3.37v7.41h-2.64V35.92Z" transform="translate(0.95 -2.15)"/><path class="cls-2" d="M295.94,49.74c-.37,2.34-2.59,4-5.52,4-3.77,0-6.05-2.55-6.05-6.59s2.32-6.71,5.94-6.71,5.77,2.51,5.77,6.4v.9H287v.16c0,2.23,1.34,3.71,3.45,3.71a2.9,2.9,0,0,0,3-1.88ZM287,45.91h6.41a3.15,3.15,0,0,0-3.14-3.34A3.31,3.31,0,0,0,287,45.91Z" transform="translate(0.95 -2.15)"/></svg>