<svg id="Layer_1" data-name="Layer 1" xmlns="http://www.w3.org/2000/svg" viewBox="0 0 338.58 126.3"><defs><style>.cls-1{fill:#231f20;}.cls-2{fill:#ea4335;}.cls-3{fill:#fbbc04;}.cls-4{fill:#4285f4;}.cls-5{fill:#34a853;}.cls-6{fill:#fff;}</style></defs><path class="cls-1" d="M14.51,2H325.59c7.58,0,13.75,6.79,13.75,15.16v96c0,8.36-6.17,15.16-13.75,15.16H14.51C6.92,128.3.76,121.51.76,113.14v-96C.76,8.8,6.92,2,14.51,2Z" transform="translate(-0.76 -2)"/><path class="cls-2" d="M60.06,68,31.32,98.11a7.8,7.8,0,0,0,9.62,5.39,8.1,8.1,0,0,0,1.79-.76L75.08,84.31,60.06,68Z" transform="translate(-0.76 -2)"/><path class="cls-3" d="M89.13,62.87l-14-8L59.4,68.68,75.21,84.27l13.88-7.92a7.61,7.61,0,0,0,0-13.48Z" transform="translate(-0.76 -2)"/><path class="cls-4" d="M31.32,41a7.25,7.25,0,0,0-.26,2V96.14a7.72,7.72,0,0,0,.26,2L61.05,68.76,31.32,41Z" transform="translate(-0.76 -2)"/><path class="cls-5" d="M60.28,69.53,75.14,54.86,42.84,36.35a7.93,7.93,0,0,0-4-1.09,7.79,7.79,0,0,0-7.52,5.68l29,28.59Z" transform="translate(-0.76 -2)"/><path class="cls-6" d="M306,77l-5.06,12.9h-.15L295.5,77h-4.77l7.91,18-4.52,10h4.64L311,77Zm-35.78-10.7H265.8V96h4.42Zm-16.64,0H242.94V96h4.46V84.76h6.19a9.44,9.44,0,0,0,9.76-9.11v-.12a9.45,9.45,0,0,0-9.65-9.25Zm.11,14.33H247.4V70.48h6.31a5.07,5.07,0,0,1,0,10.13Zm27.43-4.27a8.32,8.32,0,0,0-7.91,4.56l4,1.68a4.19,4.19,0,0,1,4-2.16,4.25,4.25,0,0,1,4.65,3.81v.33a9.66,9.66,0,0,0-4.61-1.17c-4.24,0-8.56,2.33-8.56,6.76,0,4,3.46,6.54,7.38,6.54a6.15,6.15,0,0,0,5.63-2.9h.17v2.3h4.32V84.64c0-5.28-3.95-8.22-9-8.22l0-.08Zm-.52,16.3c-1.45,0-3.48-.74-3.48-2.53,0-2.29,2.52-3.17,4.71-3.17a7.74,7.74,0,0,1,4.05,1,5.38,5.38,0,0,1-5.28,4.7Zm-160,4a15.72,15.72,0,1,1,0-31.43,15.09,15.09,0,0,1,10.82,4.34l-3.06,3a11,11,0,0,0-7.76-3.14,11.43,11.43,0,0,0,0,22.86,10.56,10.56,0,0,0,8-3.16,8.83,8.83,0,0,0,2.35-5.4H120.56V79.58h14.51a14.26,14.26,0,0,1,.22,2.68,14.09,14.09,0,0,1-3.73,10.13,14.45,14.45,0,0,1-11,4.27Zm37.18-10.13a10,10,0,1,1-20,.82c0-.27,0-.54,0-.82a10,10,0,1,1,20-.82C157.75,86,157.75,86.26,157.74,86.53Zm-4.39,0a5.66,5.66,0,0,0-11.26-1.07,6.37,6.37,0,0,0,0,1.07,5.66,5.66,0,1,0,11.26,1.07A4.79,4.79,0,0,0,153.35,86.53Zm26.84,0a10,10,0,1,1-10-10A10,10,0,0,1,180.19,86.53Zm-4.37,0a5.66,5.66,0,0,0-11.26-1.07,6.37,6.37,0,0,0,0,1.07,5.66,5.66,0,1,0,11.26,1.07A6.37,6.37,0,0,0,175.82,86.53ZM202.1,77V95.21c0,7.46-4.44,10.53-9.67,10.53a9.72,9.72,0,0,1-9-5.91l3.83-1.68a5.64,5.64,0,0,0,5.07,3.59c3.37,0,5.43-2.08,5.43-5.94V94.35h-.17a7,7,0,0,1-5.26,2.31,10.13,10.13,0,0,1,0-20.26,7,7,0,0,1,5.33,2.27h.17V77h4.29v0Zm-3.93,9.55a5.72,5.72,0,0,0-5.25-6.16h-.17a5.86,5.86,0,0,0-5.68,6.06v.11a5.83,5.83,0,0,0,5.55,6.09h.13a5.65,5.65,0,0,0,5.43-5.87c0-.08,0-.15,0-.23h0Zm11.74-20.27V96h-4.45V66.31Zm17.56,23.57,3.47,2.29a10.12,10.12,0,0,1-8.44,4.49A9.8,9.8,0,0,1,212.56,87c0-.16,0-.31,0-.46a9.32,9.32,0,0,1,18.15-3.68l.45,1.16-13.5,5.59a5.18,5.18,0,0,0,4.93,3.07,5.82,5.82,0,0,0,4.88-2.8Zm-10.65-3.65,9.08-3.75a4,4,0,0,0-3.78-2.14,5.56,5.56,0,0,0-5.31,5.79.34.34,0,0,0,0,.1Z" transform="translate(-0.76 -2)"/><path class="cls-6" d="M112.05,55.05c-4.58,0-7.51-3.34-7.51-8.55s2.92-8.39,7.51-8.39a6.59,6.59,0,0,1,6.86,5.36h-2.15A4.67,4.67,0,0,0,112.05,40c-3.37,0-5.41,2.43-5.41,6.48s2.07,6.69,5.41,6.69A4.55,4.55,0,0,0,117,48.53v-.3h-4.62V46.44H119V48C119,52.43,116.43,55.05,112.05,55.05Z" transform="translate(-0.76 -2)"/><path class="cls-6" d="M131.78,54.78H121.62V38.38h10.16v1.84h-8.11v5.26h7.69V47.3h-7.69v5.64h8.11v1.84Z" transform="translate(-0.76 -2)"/><path class="cls-6" d="M138.62,54.78V40.22h-5.17V38.38h12.39v1.84h-5.17V54.78Z" transform="translate(-0.76 -2)"/><path class="cls-6" d="M152.78,54.78V38.38h2v16.4Z" transform="translate(-0.76 -2)"/><path class="cls-6" d="M158,54.78V38.38h2l9,12.88h.1V38.38h2v16.4h-2l-9-12.83H160V54.78Z" transform="translate(-0.76 -2)"/><path class="cls-6" d="M193.53,46.59c0,5.2-2.91,8.46-7.56,8.46s-7.55-3.26-7.55-8.46,2.91-8.48,7.55-8.48S193.53,41.38,193.53,46.59Zm-13,0c0,4,2.1,6.58,5.45,6.58s5.46-2.55,5.46-6.58S189.33,40,186,40,180.52,42.54,180.52,46.59Z" transform="translate(-0.76 -2)"/><path class="cls-6" d="M196.08,54.78V38.38h2l9,12.88h.11V38.38h2v16.4h-2L198.2,42h-.1V54.78Z" transform="translate(-0.76 -2)"/></svg>