<?xml version="1.0" encoding="UTF-8"?>
<svg xmlns="http://www.w3.org/2000/svg" width="70.395" height="19.62" version="1.1" viewBox="0 0 70.395 19.62">
  <defs>
    <style>
      .cls-1 {
        fill: #fff;
      }

      .cls-2 {
        fill: #26b15d;
      }
    </style>
  </defs>
  <!-- Generator: Adobe Illustrator 28.7.1, SVG Export Plug-In . SVG Version: 1.2.0 Build 142)  -->
  <g>
    <g id="Layer_1">
      <g>
        <path class="cls-2" d="M6.414,8.705c-.398.939-1.495,1.496-2.68,1.444-1.842-.082-3.207-1.123-3.714-2.502-.186,1.943.956,3.628,2.994,4.089,2.205.497,4.325-.604,4.932-2.116l-1.532-.915Z"/>
        <path class="cls-1" d="M61.954,9.067c0,1.459-1.3,2.679-3.756,2.679-2.085,0-3.513-1.141-3.642-2.679l1.557-.745c.128,1.284,1.267,1.744,2.326,1.744.963,0,1.637-.396,1.637-.951,0-1.507-5.167-.158-5.167-3.361,0-1.348,1.316-2.363,3.498-2.363s3.513,1.125,3.513,2.299l-1.475.634c-.096-.919-1.155-1.268-2.086-1.268-.898,0-1.508.301-1.508.729,0,1.157,5.103.286,5.103,3.282M19.361,5.785c0-.428.61-.729,1.509-.729.93,0,1.99.349,2.086,1.268l1.38-.729c0-1.173-1.236-2.204-3.418-2.204s-3.499,1.015-3.499,2.363c0,3.203,5.167,1.854,5.167,3.361,0,.555-.673.951-1.636.951-1.059,0-2.198-.46-2.327-1.744l-1.556.745c.128,1.538,1.556,2.679,3.642,2.679,2.455,0,3.756-1.22,3.756-2.679,0-2.996-5.104-2.125-5.104-3.282M14.365,3.402h1.942v8.344h-1.942v-1.3c-.482.802-1.381,1.3-2.295,1.3-2.295,0-3.338-1.845-3.338-4.236,0-2.327,1.043-4.108,3.338-4.108.914,0,1.813.465,2.295,1.235v-1.235ZM14.332,7.51c0-1.428-.69-2.423-1.813-2.423-1.171,0-1.845.995-1.845,2.423,0,1.476.674,2.487,1.845,2.487,1.123,0,1.813-1.011,1.813-2.487M30.748,6.956c0,1.091-.208,2.953-2.021,2.953-.738,0-1.348-.289-1.348-1.974V3.402h-1.942v5.174c0,2.023.963,3.178,2.824,3.178,1.45,0,2.154-.744,2.487-1.771v.327c0,1.532-.496,2.694-2.086,2.92-1.255.178-2.16-.484-2.854-1.448l-1.046,1.304c.534.926,2.174,1.75,3.728,1.749.221,0,.442-.017.656-.053,2.358-.395,3.544-2.011,3.544-4.344V3.402h-1.942v3.554ZM51.491,11.746h1.942V3.402h-1.942v8.344ZM70.395,3.402v8.344h-1.942v-1.3c-.482.802-1.38,1.3-2.295,1.3-2.295,0-3.338-1.845-3.338-4.236,0-2.327,1.043-4.108,3.338-4.108.915,0,1.813.465,2.295,1.235v-1.235h1.942ZM68.421,7.51c0-1.428-.691-2.423-1.813-2.423-1.172,0-1.846.995-1.846,2.423,0,1.476.674,2.487,1.846,2.487,1.122,0,1.813-1.011,1.813-2.487M48.177,3.402h1.942v8.344h-1.942v-1.3c-.481.802-1.38,1.3-2.295,1.3-2.294,0-3.338-1.845-3.338-4.236,0-2.327,1.044-4.108,3.338-4.108.915,0,1.814.465,2.295,1.235v-1.235ZM48.145,7.51c0-1.428-.69-2.423-1.813-2.423-1.172,0-1.846.995-1.846,2.423,0,1.476.674,2.487,1.846,2.487,1.123,0,1.813-1.011,1.813-2.487M41.713,7.646c0,2.327-1.043,4.108-3.339,4.108-.914,0-1.812-.466-2.294-1.235v4.316h-1.941V3.402h1.941v1.307c.482-.802,1.38-1.299,2.294-1.299,2.296,0,3.339,1.845,3.339,4.236M39.771,7.646c0-1.477-.674-2.487-1.845-2.487-1.124,0-1.814,1.01-1.814,2.487,0,1.428.69,2.423,1.814,2.423,1.171,0,1.845-.995,1.845-2.423"/>
        <path class="cls-2" d="M51.203,1.252C51.203.562,51.765,0,52.454,0,53.129,0,53.69.562,53.69,1.252c0,.674-.561,1.236-1.236,1.236-.689,0-1.251-.562-1.251-1.236"/>
        <path class="cls-1" d="M.189,6.85c.279-2.096,1.626-3.442,3.732-3.56,1.265-.071,2.558.382,3.271,1.571.628,1.047.738,3.132-1.962,3.686-2.81.576-4.593-.772-5.041-1.697M5.474,5.663c-.272-.415-.795-.634-1.517-.593-1.169.066-1.854.84-2.014,1.564.339.37,1.901.72,3.039.331.584-.2.813-.813.492-1.302"/>
        <path class="cls-1" d="M58.357,14.892c-.582,0-.916.313-1.069.511v-1.845h-.61v4.737h.592v-.426c.265.336.618.506,1.05.506.458,0,.873-.174,1.168-.49.295-.315.457-.757.457-1.245,0-1.029-.653-1.748-1.588-1.748M58.302,15.46c.286,0,.545.117.729.328.188.215.291.52.291.858,0,.343-.104.637-.3.851-.187.204-.447.316-.732.316-.591,0-1.02-.491-1.02-1.167,0-.709.415-1.186,1.032-1.186"/>
        <path class="cls-1" d="M65.819,14.892c-.243,0-.47.06-.657.174-.118.072-.219.165-.295.27v-.364h-.611v3.322h.611v-1.968c0-.487.359-.854.835-.854.441,0,.762.328.762.78v2.042h.61v-2.073c0-.782-.516-1.329-1.255-1.329"/>
        <polygon class="cls-1" points="69.212 16.468 70.324 14.972 69.609 14.972 68.705 16.208 68.24 16.208 68.24 13.557 67.629 13.557 67.629 18.294 68.24 18.294 68.24 16.775 68.721 16.775 69.668 18.294 70.395 18.294 69.212 16.468"/>
        <path class="cls-1" d="M63.598,14.971h-.617v.428c-.145-.19-.475-.508-1.063-.508-.935,0-1.587.719-1.587,1.748,0,.489.161.931.454,1.245.294.316.71.49,1.17.49.428,0,.779-.165,1.027-.478v.478h.614v-.343c0-.173.002-.369.002-.378v-2.682ZM62.724,17.471c-.186.223-.444.341-.744.341-.605,0-1.026-.48-1.026-1.167,0-.338.103-.643.29-.858.185-.211.444-.328.729-.328.282,0,.539.109.722.307.199.214.304.518.304.879,0,.32-.097.613-.275.826"/>
        <path class="cls-1" d="M40.036,13.469v1.845c-.153-.198-.487-.511-1.069-.511-.934,0-1.587.719-1.587,1.748,0,.488.162.93.456,1.245.296.316.71.489,1.168.489.432,0,.785-.17,1.051-.505v.426h.592v-4.737h-.611ZM39.035,17.724c-.608,0-1.032-.48-1.032-1.167,0-.338.103-.643.29-.858.185-.212.444-.328.73-.328.617,0,1.032.476,1.032,1.186,0,.766-.513,1.167-1.02,1.167"/>
        <path class="cls-1" d="M45.379,14.883v.426c-.265-.336-.618-.506-1.05-.506-.458,0-.873.174-1.168.49-.295.315-.457.757-.457,1.245,0,1.029.653,1.748,1.588,1.748.6,0,.922-.304,1.069-.503v.815c0,.318-.121.448-.418.448h-1.452v.574h1.446c.32,0,.571-.077.746-.228.191-.165.288-.416.288-.745v-3.764h-.592ZM44.347,17.718c-.6,0-1.02-.485-1.02-1.18,0-.687.425-1.167,1.032-1.167.591,0,1.02.491,1.02,1.167,0,.359-.105.661-.304.874-.185.197-.443.306-.728.306"/>
        <rect class="cls-1" x="47.907" y="13.507" width=".768" height=".53"/>
        <path class="cls-1" d="M50.165,15.42v-.537h-.984v-.928h-.58v.928h-.633v.537h.602v1.813c0,.329.097.579.289.744.175.152.426.228.745.228h.518v-.549h-.524c-.304,0-.417-.116-.417-.429v-1.807h.984Z"/>
        <polygon class="cls-1" points="46.333 14.868 46.333 15.405 46.941 15.405 46.941 18.206 47.551 18.206 47.551 15.405 47.551 15.38 47.551 15.342 47.551 14.93 47.551 14.868 46.333 14.868"/>
        <polygon class="cls-1" points="41.011 14.868 41.011 15.405 41.619 15.405 41.619 18.206 42.229 18.206 42.229 15.405 42.229 15.38 42.229 15.342 42.229 14.93 42.229 14.868 41.011 14.868"/>
        <path class="cls-1" d="M53.584,14.883h-.617v.428c-.145-.19-.475-.508-1.063-.508-.935,0-1.587.719-1.587,1.748,0,.489.161.931.454,1.245.294.316.71.49,1.17.49.428,0,.779-.165,1.027-.478v.478h.614v-.343c0-.173.002-.369.002-.378v-2.682ZM52.71,17.383c-.186.223-.444.341-.745.341-.604,0-1.025-.48-1.025-1.167,0-.338.103-.643.29-.858.185-.211.444-.328.729-.328.282,0,.539.109.722.307.199.214.304.518.304.879,0,.32-.097.613-.275.826"/>
        <polygon class="cls-1" points="54.228 18.295 54.839 18.295 54.839 14.015 54.838 14.015 54.838 13.955 54.838 13.536 54.838 13.474 53.582 13.474 53.582 14.017 54.228 14.017 54.228 18.295"/>
      </g>
    </g>
  </g>
</svg>